<svg width="72" height="70" viewBox="0 0 72 70" fill="none" xmlns="http://www.w3.org/2000/svg">
<path d="M45.2102 42.8462H63.309V60.9142H45.2102V42.8462Z" fill="#F0B66F"/>
<path d="M52.9709 42.8462H55.5518V46.8553H52.9709V42.8462Z" fill="white"/>
<path d="M52.9709 57.0567H55.5518V60.9106H52.9709V57.0567Z" fill="white"/>
<path d="M39.7665 24.7566H57.8652V42.8246H39.7665V24.7566Z" fill="#F0B66F"/>
<path d="M47.5273 24.7566H50.1082V28.7657H47.5273V24.7566Z" fill="white"/>
<path d="M47.5273 38.9707H50.1082V42.8246H47.5273V38.9707Z" fill="white"/>
<path d="M27.2741 42.8246H45.3728V60.8925H27.2741V42.8246Z" fill="#F0B66F"/>
<path d="M35.0348 42.8246H37.6157V46.8337H35.0348V42.8246Z" fill="white" stroke="#020001" stroke-width="0.75" stroke-miterlimit="10"/>
<path d="M35.0348 57.035H37.6157V60.8889H35.0348V57.035Z" fill="white"/>
<path d="M63.5692 43.0699H28.4019C27.932 43.0699 27.4441 43.1096 26.9778 43.0699H26.9091C26.8541 43.063 26.8035 43.0362 26.7669 42.9947C26.7302 42.9532 26.71 42.8998 26.71 42.8444C26.71 42.7891 26.7302 42.7356 26.7669 42.6941C26.8035 42.6526 26.8541 42.6258 26.9091 42.6189H62.0655C62.5354 42.6189 63.0234 42.5828 63.4933 42.6189H63.5584C63.6134 42.6258 63.6639 42.6526 63.7006 42.6941C63.7372 42.7356 63.7574 42.7891 63.7574 42.8444C63.7574 42.8998 63.7372 42.9532 63.7006 42.9947C63.6639 43.0362 63.6134 43.063 63.5584 43.0699H63.5692Z" fill="#D26637"/>
<path d="M45.1488 60.7734V42.9509C45.1557 42.896 45.1825 42.8455 45.2241 42.8089C45.2657 42.7723 45.3192 42.7521 45.3747 42.7521C45.4301 42.7521 45.4836 42.7723 45.5252 42.8089C45.5668 42.8455 45.5936 42.896 45.6006 42.9509V60.7734C45.5936 60.8284 45.5668 60.8788 45.5252 60.9154C45.4836 60.952 45.4301 60.9722 45.3747 60.9722C45.3192 60.9722 45.2657 60.952 45.2241 60.9154C45.1825 60.8788 45.1557 60.8284 45.1488 60.7734Z" fill="#D26637"/>
<path d="M42.0618 49.1504L44.9463 53.0259L42.1847 55.0792L39.0652 50.9402L42.0618 49.1504Z" fill="#F2B39F"/>
<path d="M44.7151 59.6873L48.3659 57.1433C48.3659 57.1433 48.8358 56.8546 48.7274 56.7211L45.0079 51.799L41.1004 54.9457L42.3873 57.0495L41.5812 59.0378C41.504 59.2281 41.3796 59.3957 41.2197 59.5249L39.0509 60.8095H41.9029H42.5969C42.8632 60.8007 43.124 60.7316 43.3596 60.6075L44.7151 59.6873Z" fill="white"/>
<path d="M46.7247 54.0688C46.3685 54.2632 46.0713 54.5499 45.8644 54.8988C45.7084 55.1584 45.6052 55.4461 45.5608 55.7456C45.5163 56.0451 45.5314 56.3503 45.6053 56.644C45.6792 56.9376 45.8103 57.2138 45.9912 57.4567C46.1721 57.6997 46.3993 57.9046 46.6597 58.0598C46.7333 58.1026 46.8094 58.1411 46.8874 58.1753L48.8176 56.8293L46.7247 54.0688Z" fill="#1D214C"/>
<path d="M41.1184 58.9656L42.4919 59.7847" stroke="#210E2C" stroke-miterlimit="10"/>
<path d="M41.6136 57.966L42.9908 58.7851" stroke="#210E2C" stroke-miterlimit="10"/>
<path d="M42.0077 57.3309C42.0077 57.3309 39.1159 57.9913 39.04 57.0964C38.9316 55.6529 42.0077 57.3309 42.0077 57.3309Z" stroke="#210E2C" stroke-miterlimit="10"/>
<path d="M39.987 55.5158L42.0944 57.3273" stroke="#210E2C" stroke-miterlimit="10"/>
<path d="M43.7534 49.7133L39.0543 53.08C39.0543 53.08 28.6766 42.821 29.3923 32.8722L30.0212 32.7171L34.6408 31.3891C34.6408 31.3891 36.2096 41.5472 43.7534 49.7133Z" fill="#4C2A10"/>
<path d="M42.163 47.891L37.8868 50.7778L37.2759 51.1892C37.1313 51.2866 36.994 51.052 37.1386 50.9546L41.4184 48.0678L42.0256 47.6564C42.1738 47.559 42.3076 47.7935 42.163 47.891Z" fill="#3E1D5D"/>
<path d="M21.9858 50.8608V55.6926H18.541L18.5121 50.518L21.9858 50.8608Z" fill="#F2B39F"/>
<path d="M12.2697 60.8817L22.933 60.8059L22.651 54.5126L17.6519 54.8843L17.5146 57.3453L12.2697 60.8817Z" fill="white"/>
<path d="M22.7775 57.349C22.3512 57.3028 21.9204 57.3771 21.5342 57.5633C21.1479 57.7494 20.8218 58.0401 20.5929 58.4021C20.3639 58.7641 20.2413 59.183 20.239 59.6112C20.2367 60.0393 20.3548 60.4595 20.5798 60.824H22.933L22.7775 57.349Z" fill="#1D214C"/>
<path d="M15.3819 58.2042L16.047 59.6584" stroke="#210E2C" stroke-miterlimit="10"/>
<path d="M16.3578 57.6629L17.0229 59.1171" stroke="#210E2C" stroke-miterlimit="10"/>
<path d="M17.0591 57.3273C17.0591 57.3273 14.3083 56.2447 14.7529 55.4509C15.4686 54.1951 17.0591 57.3273 17.0591 57.3273Z" stroke="#210E2C" stroke-miterlimit="10"/>
<path d="M16.4265 54.6895L17.135 57.3742" stroke="#210E2C" stroke-miterlimit="10"/>
<path d="M35.3168 29.2348C35.3168 29.2348 36.0108 33.3053 30.6539 36.9824C27.0392 39.4686 24.1185 41.4064 23.6197 47.1043L23.2871 51.5284H17.0265C17.0265 51.5284 16.8602 43.3406 20.3484 37.6427C22.501 34.161 25.1521 31.0123 28.2176 28.2966L35.3168 29.2348Z" fill="#4C2A10"/>
<path d="M23.4859 49.0066H17.1349C17.1028 49.0014 17.0735 48.9848 17.0524 48.96C17.0314 48.9352 17.0198 48.9036 17.0198 48.871C17.0198 48.8384 17.0314 48.8069 17.0524 48.782C17.0735 48.7572 17.1028 48.7406 17.1349 48.7354H23.4859C23.5181 48.7406 23.5473 48.7572 23.5684 48.782C23.5895 48.8069 23.6011 48.8384 23.6011 48.871C23.6011 48.9036 23.5895 48.9352 23.5684 48.96C23.5473 48.9848 23.5181 49.0014 23.4859 49.0066Z" fill="#210E2C"/>
<path d="M35.3601 30.8478C35.2408 32.2227 34.4131 33.5939 33.5528 34.6296C31.7057 36.8741 28.9151 38.0252 26.815 40.0063C26.2629 40.5204 25.7957 41.1184 25.4306 41.7781C25.3474 41.9333 25.1125 41.7781 25.1956 41.641C25.9872 40.1976 27.2524 39.2052 28.5573 38.2562C29.8622 37.3071 31.3767 36.4519 32.5732 35.29C33.4512 34.4557 34.1552 33.4562 34.6444 32.349C34.8684 31.8747 35.016 31.3681 35.0818 30.8478C35.0818 30.6746 35.3673 30.6746 35.3529 30.8478H35.3601Z" fill="#210E2C"/>
<path d="M27.614 9.93275L26.9381 9.75233L27.6068 8.91875L27.614 9.93275Z" fill="#AA1D21"/>
<path d="M29.1719 6.59484H30.4442C30.8791 6.63258 31.2817 6.83953 31.5651 7.17102C31.8484 7.50251 31.9899 7.93195 31.9588 8.36663L31.9335 10.3369C31.9371 10.391 31.9371 10.4452 31.9335 10.4993C31.9426 10.5591 31.9426 10.6199 31.9335 10.6797V11.8813V11.9463V13.1443C31.9306 13.3543 31.8446 13.5545 31.6942 13.7013C31.5438 13.848 31.3413 13.9293 31.131 13.9274H30.625C30.4153 13.9236 30.2157 13.8373 30.0694 13.6873C29.9232 13.5372 29.8423 13.3356 29.8442 13.1263V12.0654H29.1213C28.2754 12.0654 27.5959 11.2571 27.6067 10.2936L27.6356 8.32333C27.6356 7.35985 28.3405 6.58041 29.1719 6.59484Z" fill="#F2B39F"/>
<path d="M33.5601 6.11852C33.2726 6.02327 32.9664 5.99851 32.6673 6.04635L32.548 6.01748C31.572 3.13065 28.467 2.54968 27.7477 3.52759C27.0284 4.5055 27.9574 5.65302 27.9574 5.65302C27.9574 5.65302 26.1789 5.96335 27.2778 7.32017C28.2935 8.57955 30.7262 8.65893 31.0732 8.66254C31.1876 9.26671 31.4795 9.82321 31.9118 10.2611L31.9407 11.8958C31.9407 11.8958 34.3301 10.9612 34.865 9.66572C35.3169 8.56511 35.259 6.59485 33.5601 6.11852Z" fill="#210E2C"/>
<path d="M29.0851 9.29403C29.0931 9.34903 29.0845 9.40513 29.0605 9.45528C29.0366 9.50543 28.9983 9.54737 28.9505 9.57583C28.9027 9.60429 28.8475 9.61799 28.7919 9.61521C28.7363 9.61242 28.6828 9.59328 28.6381 9.56018C28.5934 9.52709 28.5595 9.48152 28.5407 9.42923C28.5219 9.37694 28.519 9.32026 28.5324 9.26633C28.5458 9.2124 28.5749 9.16364 28.616 9.12619C28.6571 9.08874 28.7084 9.06427 28.7634 9.05587C28.8003 9.04974 28.838 9.05109 28.8744 9.05983C28.9107 9.06858 28.9449 9.08454 28.9749 9.10677C29.005 9.12899 29.0302 9.15703 29.0491 9.1892C29.0681 9.22138 29.0803 9.25703 29.0851 9.29403Z" fill="#210E2C"/>
<path d="M27.8127 11.229C27.9559 11.2694 28.1087 11.2596 28.2455 11.201C28.3823 11.1424 28.4949 11.0387 28.5646 10.9071" stroke="black" stroke-width="0.5" stroke-miterlimit="10"/>
<path d="M34.8468 6.59845C34.9375 6.73944 35.0799 6.83924 35.2435 6.87637C35.4072 6.91349 35.5789 6.88496 35.7216 6.79692C35.8498 6.68954 35.9301 6.53584 35.945 6.36946C35.9599 6.20309 35.9082 6.0376 35.8011 5.90922C35.7124 5.76713 35.5708 5.66603 35.4075 5.62814C35.2441 5.59024 35.0724 5.61866 34.93 5.70714C34.8019 5.81519 34.7214 5.96913 34.7058 6.13582C34.6903 6.30252 34.7409 6.46865 34.8468 6.59845Z" fill="#6C9AA4"/>
<path d="M33.0107 5.02152C33.0107 5.02152 31.6625 1.5898 29.9636 2.04087C28.2647 2.49193 30.9323 6.03913 30.9323 6.03913L33.0107 5.02152Z" fill="#F2F4F4"/>
<path d="M33.148 11.1091L30.2309 5.07565C30.2309 5.07565 32.7612 3.77658 34.4674 5.19473C36.1735 6.61289 36.1807 10.3008 33.148 11.1091Z" fill="#4C2A10"/>
<path d="M33.56 10.1601C33.5593 10.3611 33.4987 10.5573 33.386 10.7239C33.2733 10.8905 33.1136 11.0199 32.9271 11.0956C32.7406 11.1714 32.5357 11.1901 32.3385 11.1494C32.1414 11.1086 31.9608 11.0103 31.8197 10.8669C31.6786 10.7235 31.5833 10.5415 31.5461 10.344C31.5088 10.1464 31.5312 9.94231 31.6104 9.75751C31.6896 9.57271 31.8221 9.41557 31.9909 9.30607C32.1598 9.19656 32.3574 9.13962 32.5587 9.14248C32.6915 9.14342 32.8227 9.17052 32.945 9.22222C33.0672 9.27391 33.178 9.34919 33.271 9.44373C33.364 9.53828 33.4375 9.65022 33.4871 9.77315C33.5366 9.89608 33.5614 10.0276 33.56 10.1601Z" fill="#F2B39F"/>
<path d="M31.8612 10.2719C31.8587 10.1804 31.8709 10.089 31.8973 10.0013C31.9212 9.91343 31.9635 9.83163 32.0215 9.76133C32.0794 9.69103 32.1517 9.63383 32.2335 9.59353C32.3683 9.53779 32.5155 9.5191 32.66 9.5394C32.6958 9.53939 32.7302 9.55334 32.7559 9.57828C32.7815 9.60322 32.7964 9.63718 32.7974 9.67292C32.7964 9.709 32.7817 9.74335 32.7561 9.76887C32.7306 9.79439 32.6961 9.80913 32.66 9.81004C32.5999 9.80457 32.5394 9.80457 32.4793 9.81004H32.4251L32.3564 9.8317H32.3311C32.3111 9.83896 32.2927 9.84998 32.2768 9.86417C32.3022 9.84252 32.2479 9.88222 32.2768 9.86417L32.2371 9.90748V9.92913L32.2082 9.97604V9.99769C32.2082 9.97604 32.2082 10.0302 32.2082 9.99769C32.2082 10.0193 32.2082 10.0266 32.2082 10.0446L32.1865 10.1312C32.1865 10.1312 32.1865 10.1529 32.1865 10.1673C32.1846 10.1937 32.1846 10.2202 32.1865 10.2467C32.1812 10.2788 32.1647 10.308 32.1399 10.329C32.115 10.3501 32.0835 10.3616 32.0509 10.3616C32.0184 10.3616 31.9868 10.3501 31.962 10.329C31.9372 10.308 31.9206 10.2788 31.9154 10.2467L31.8612 10.2719Z" fill="#210E2C"/>
<path d="M31.6045 14.6671L30.0935 14.6491C29.9018 14.6491 29.7179 14.5731 29.5823 14.4377C29.4467 14.3024 29.3706 14.1188 29.3706 13.9274C29.3706 13.736 29.4467 13.5524 29.5823 13.4171C29.7179 13.2817 29.9018 13.2057 30.0935 13.2057L31.6045 13.2237C31.7962 13.2237 31.9801 13.2998 32.1156 13.4351C32.2512 13.5705 32.3274 13.754 32.3274 13.9454C32.3274 14.0402 32.3087 14.1341 32.2724 14.2216C32.236 14.3092 32.1828 14.3887 32.1156 14.4558C32.0485 14.5228 31.9688 14.5759 31.8811 14.6122C31.7934 14.6485 31.6994 14.6671 31.6045 14.6671Z" fill="#210E2C"/>
<path d="M31.5323 9.66571L30.1371 10.4127" stroke="#210E2C" stroke-width="0.75" stroke-miterlimit="10"/>
<path d="M30.0249 10.9503L32.0708 11.7154" stroke="#210E2C" stroke-width="0.75" stroke-miterlimit="10"/>
<path d="M26.938 9.47446L30.325 10.3008L29.8478 12.1376C29.8478 12.1376 28.3116 12.6355 27.4802 11.654C27.217 11.3634 27.0297 11.0124 26.9351 10.6322C26.8405 10.2519 26.8415 9.85424 26.938 9.47446Z" fill="#4C2A10"/>
<path d="M36.8278 29.6787C36.8639 29.0544 36.8856 28.4193 36.8856 27.7734C36.8856 20.098 34.2722 13.8805 31.0479 13.8805C27.8236 13.8805 25.1957 20.098 25.1957 27.7734C25.1957 28.3435 25.2102 28.9064 25.2391 29.4622L36.8278 29.6787Z" fill="#FFA83A"/>
<path d="M25.221 28.2894C25.221 28.6863 25.2391 29.076 25.2572 29.4622L36.8242 29.6787C36.8531 29.224 36.8675 28.7585 36.8748 28.2894H25.221Z" fill="#210E2C"/>
<path d="M11.1563 24.0674L25.8789 26.6944L28.1887 13.3897L13.4661 10.7591L11.1563 24.0674Z" fill="#F0B66F"/>
<path d="M19.9281 12.2578L21.517 12.5142L21.0329 15.5043L19.444 15.248L19.9281 12.2578Z" fill="white"/>
<path d="M17.978 22.5903L19.5669 22.8467L19.0828 25.8368L17.494 25.5805L17.978 22.5903Z" fill="#CFCFCD"/>
<path d="M18.2591 26.9001C19.4809 27.3151 20.4279 27.6218 20.4279 27.6218L21.6967 24.7711C20.8831 24.5254 20.0862 24.2277 19.311 23.8798L18.2591 26.9001Z" fill="#F2B39F"/>
<path d="M19.8568 24.1323C19.5966 24.0241 19.3327 23.9086 19.0869 23.7715C17.9483 23.2049 15.9602 21.6713 15.812 21.9383C15.6638 22.2054 16.9506 23.4395 16.9506 23.4395C16.9506 23.4395 13.9251 22.3064 13.7986 22.5518C13.6721 22.7972 15.3529 23.8112 15.3529 23.8112C15.3529 23.8112 13.4841 23.1111 13.4227 23.3818C13.3612 23.6524 15.23 24.5401 15.23 24.5401C15.23 24.5401 13.2672 23.9122 13.2672 24.172C13.2672 24.4318 14.9119 25.1752 14.9119 25.1752C14.9119 25.1752 12.9961 24.5509 13.2745 24.9767C13.4624 25.2654 16.6903 26.3877 18.7543 27.0769L19.8568 24.1323Z" fill="white"/>
<path d="M21.1184 24.6014C21.1184 24.6014 26.4067 25.6407 28.1345 18.6185C29.8624 11.5963 34.2795 14.3424 34.8615 18.9072C35.2735 22.2198 34.6735 24.2478 31.2468 26.9506C27.8201 29.6534 21.2919 28.2894 19.9834 27.4811L21.1184 24.6014Z" fill="#D38523"/>
<path d="M21.4582 28.026L22.5859 24.6051C22.0993 24.6758 21.605 24.6758 21.1184 24.6051L19.987 27.4919C20.4522 27.7326 20.9467 27.9121 21.4582 28.026Z" fill="#210E2C"/>
<path d="M28.8067 8.55428L29.3815 8.74665" stroke="#210E2C" stroke-width="0.75" stroke-miterlimit="10"/>
<path d="M69.8009 61.1487H4.95348C4.07873 61.1487 3.18951 61.1848 2.31476 61.1487H2.1991C2.1441 61.1418 2.09353 61.115 2.05688 61.0735C2.02022 61.032 2 60.9785 2 60.9232C2 60.8679 2.02022 60.8144 2.05688 60.7729C2.09353 60.7314 2.1441 60.7046 2.1991 60.6977H67.0465C67.9213 60.6977 68.8069 60.658 69.6852 60.6977H69.8009C69.8559 60.7046 69.9065 60.7314 69.9431 60.7729C69.9798 60.8144 70 60.8679 70 60.9232C70 60.9785 69.9798 61.032 69.9431 61.0735C69.9065 61.115 69.8559 61.1418 69.8009 61.1487Z" fill="#210E2C"/>
<path d="M46.1826 67.9797H12.7432C12.2893 68.0068 11.8343 68.0068 11.3804 67.9797H11.319C11.264 67.9728 11.2134 67.946 11.1768 67.9045C11.1401 67.863 11.1199 67.8095 11.1199 67.7542C11.1199 67.6989 11.1401 67.6454 11.1768 67.6039C11.2134 67.5624 11.264 67.5356 11.319 67.5287H44.7584C45.2135 67.5016 45.6697 67.5016 46.1248 67.5287H46.1826C46.2376 67.5356 46.2882 67.5624 46.3248 67.6039C46.3615 67.6454 46.3817 67.6989 46.3817 67.7542C46.3817 67.8095 46.3615 67.863 46.3248 67.9045C46.2882 67.946 46.2376 67.9728 46.1826 67.9797Z" fill="#210E2C"/>
<path d="M54.5144 63.3463H36.8278C36.7728 63.3394 36.7222 63.3126 36.6855 63.2711C36.6489 63.2296 36.6287 63.1761 36.6287 63.1208C36.6287 63.0655 36.6489 63.012 36.6855 62.9705C36.7222 62.929 36.7728 62.9022 36.8278 62.8953H54.5144C54.5694 62.9022 54.62 62.929 54.6566 62.9705C54.6933 63.012 54.7135 63.0655 54.7135 63.1208C54.7135 63.1761 54.6933 63.2296 54.6566 63.2711C54.62 63.3126 54.5694 63.3394 54.5144 63.3463Z" fill="#210E2C"/>
<path d="M31.207 64.4073H5.28614C5.23114 64.4003 5.18058 64.3736 5.14393 64.332C5.10728 64.2905 5.08705 64.2371 5.08705 64.1817C5.08705 64.1264 5.10728 64.0729 5.14393 64.0314C5.18058 63.9899 5.23114 63.9632 5.28614 63.9562H31.207C31.262 63.9632 31.3126 63.9899 31.3493 64.0314C31.3859 64.0729 31.4061 64.1264 31.4061 64.1817C31.4061 64.2371 31.3859 64.2905 31.3493 64.332C31.3126 64.3736 31.262 64.4003 31.207 64.4073Z" fill="#210E2C"/>
</svg>
