<svg width="24" height="25" viewBox="0 0 24 25" fill="none" xmlns="http://www.w3.org/2000/svg">
<path d="M9.78133 4.39076C10.3452 3.91023 10.6271 3.66997 10.9219 3.52907C11.6037 3.2032 12.3963 3.2032 13.0781 3.52907C13.3729 3.66997 13.6548 3.91023 14.2187 4.39076C14.4431 4.58201 14.5553 4.67764 14.6752 4.75796C14.9499 4.94209 15.2584 5.06988 15.5828 5.13393C15.7244 5.16188 15.8713 5.1736 16.1653 5.19706C16.9038 5.25599 17.273 5.28546 17.5811 5.39427C18.2936 5.64594 18.8541 6.2064 19.1058 6.91893C19.2146 7.22699 19.244 7.59625 19.303 8.33475C19.3264 8.62868 19.3381 8.77564 19.3661 8.91718C19.4301 9.24163 19.5579 9.55014 19.7421 9.82485C19.8224 9.94469 19.918 10.0569 20.1093 10.2813C20.5898 10.8452 20.8301 11.1271 20.971 11.4219C21.2968 12.1037 21.2968 12.8963 20.971 13.5781C20.8301 13.8729 20.5898 14.1548 20.1093 14.7187C19.918 14.9431 19.8224 15.0553 19.7421 15.1752C19.5579 15.4499 19.4301 15.7584 19.3661 16.0828C19.3381 16.2244 19.3264 16.3713 19.303 16.6653C19.244 17.4038 19.2146 17.773 19.1058 18.0811C18.8541 18.7936 18.2936 19.3541 17.5811 19.6058C17.273 19.7146 16.9038 19.744 16.1653 19.803C15.8713 19.8264 15.7244 19.8381 15.5828 19.8661C15.2584 19.9301 14.9499 20.0579 14.6752 20.2421C14.5553 20.3224 14.4431 20.418 14.2187 20.6093C13.6548 21.0898 13.3729 21.3301 13.0781 21.471C12.3963 21.7968 11.6037 21.7968 10.9219 21.471C10.6271 21.3301 10.3452 21.0898 9.78133 20.6093C9.55691 20.418 9.44469 20.3224 9.32485 20.2421C9.05014 20.0579 8.74163 19.9301 8.41718 19.8661C8.27564 19.8381 8.12868 19.8264 7.83475 19.803C7.09625 19.744 6.72699 19.7146 6.41893 19.6058C5.7064 19.3541 5.14594 18.7936 4.89427 18.0811C4.78546 17.773 4.75599 17.4038 4.69706 16.6653C4.6736 16.3713 4.66188 16.2244 4.63393 16.0828C4.56988 15.7584 4.44209 15.4499 4.25796 15.1752C4.17764 15.0553 4.08201 14.9431 3.89076 14.7187C3.41023 14.1548 3.16997 13.8729 3.02907 13.5781C2.7032 12.8963 2.7032 12.1037 3.02907 11.4219C3.16997 11.1271 3.41023 10.8452 3.89076 10.2813C4.08201 10.0569 4.17764 9.9447 4.25796 9.82485C4.44209 9.55014 4.56988 9.24163 4.63393 8.91718C4.66188 8.77564 4.6736 8.62868 4.69706 8.33475C4.75599 7.59625 4.78546 7.22699 4.89427 6.91893C5.14594 6.2064 5.7064 5.64594 6.41893 5.39427C6.72699 5.28546 7.09625 5.25599 7.83475 5.19706C8.12868 5.1736 8.27564 5.16188 8.41718 5.13393C8.74163 5.06988 9.05014 4.94209 9.32485 4.75796C9.4447 4.67764 9.55691 4.58201 9.78133 4.39076Z" stroke="#A96B46" stroke-width="1.5"/>
<path d="M9 15.5L15 9.5" stroke="#A96B46" stroke-width="1.5" stroke-linecap="round"/>
<path d="M15.5 15C15.5 15.5523 15.0523 16 14.5 16C13.9477 16 13.5 15.5523 13.5 15C13.5 14.4477 13.9477 14 14.5 14C15.0523 14 15.5 14.4477 15.5 15Z" fill="#A96B46"/>
<path d="M10.5 10C10.5 10.5523 10.0523 11 9.5 11C8.94772 11 8.5 10.5523 8.5 10C8.5 9.44772 8.94772 9 9.5 9C10.0523 9 10.5 9.44772 10.5 10Z" fill="#A96B46"/>
</svg>
