<svg width="24" height="25" viewBox="0 0 24 25" fill="none" xmlns="http://www.w3.org/2000/svg">
<path d="M3.74169 21.0545C4.94131 22.5 7.17402 22.5 11.6394 22.5H12.3606C16.826 22.5 19.0587 22.5 20.2584 21.0545M3.74169 21.0545C2.54207 19.6091 2.95353 17.4146 3.77645 13.0257C4.36167 9.90452 4.65428 8.34393 5.76518 7.42196M3.74169 21.0545C3.74169 21.0545 3.74169 21.0545 3.74169 21.0545ZM20.2584 21.0545C21.458 19.6091 21.0465 17.4146 20.2236 13.0257C19.6384 9.90452 19.3458 8.34393 18.2349 7.42196M20.2584 21.0545C20.2583 21.0545 20.2584 21.0545 20.2584 21.0545ZM18.2349 7.42196C17.124 6.5 15.5362 6.5 12.3606 6.5H11.6394C8.46386 6.5 6.87608 6.5 5.76518 7.42196M18.2349 7.42196C18.2349 7.42196 18.2349 7.42196 18.2349 7.42196ZM5.76518 7.42196C5.76518 7.42196 5.76518 7.42196 5.76518 7.42196Z" stroke="#A96B46" stroke-width="1.5"/>
<path d="M9 6.5V5.5C9 3.84315 10.3431 2.5 12 2.5C13.6569 2.5 15 3.84315 15 5.5V6.5" stroke="#A96B46" stroke-width="1.5" stroke-linecap="round"/>
</svg>
