<svg width="24" height="25" viewBox="0 0 24 25" fill="none" xmlns="http://www.w3.org/2000/svg">
<g id="Linear / Money / Tag">
<path id="Vector" d="M4.72848 16.6369C3.18295 15.0914 2.41018 14.3186 2.12264 13.316C1.83509 12.3134 2.08083 11.2485 2.57231 9.11875L2.85574 7.89057C3.26922 6.09881 3.47597 5.20292 4.08944 4.58944C4.70292 3.97597 5.59881 3.76922 7.39057 3.35574L8.61875 3.07231C10.7485 2.58083 11.8134 2.33509 12.816 2.62264C13.8186 2.91018 14.5914 3.68295 16.1369 5.22848L17.9665 7.05812C20.6555 9.74711 22 11.0916 22 12.7623C22 14.433 20.6555 15.7775 17.9665 18.4665C15.2775 21.1555 13.933 22.5 12.2623 22.5C10.5916 22.5 9.24711 21.1555 6.55812 18.4665L4.72848 16.6369Z" stroke="#A96B46" stroke-width="1.5"/>
<circle id="Vector_2" cx="8.60705" cy="9.37891" r="2" transform="rotate(-45 8.60705 9.37891)" stroke="#A96B46" stroke-width="1.5"/>
<path id="Vector_3" d="M11.5417 18.9998L18.5208 12.0205" stroke="#A96B46" stroke-width="1.5" stroke-linecap="round"/>
</g>
</svg>
